<?xml version="1.0" encoding="iso-8859-1"?>
<!-- Generator: Adobe Illustrator 16.0.0, SVG Export Plug-In . SVG Version: 6.00 Build 0)  -->
<!DOCTYPE svg PUBLIC "-//W3C//DTD SVG 1.1//EN" "http://www.w3.org/Graphics/SVG/1.1/DTD/svg11.dtd">
<svg xmlns="http://www.w3.org/2000/svg" xmlns:xlink="http://www.w3.org/1999/xlink" version="1.1" id="Capa_1" x="0px" y="0px" width="512px" height="512px" viewBox="0 0 87.605 87.605" style="enable-background:new 0 0 87.605 87.605;" xml:space="preserve">
<g>
	<g id="List_1_">
		<g>
			<path d="M58.534,22.906H29.071c-0.957,0-1.732,0.792-1.732,1.765c0,0.974,0.775,1.765,1.732,1.765h29.462     c0.955,0,1.731-0.791,1.731-1.765C60.267,23.698,59.488,22.906,58.534,22.906z M58.534,36.767H29.071     c-0.957,0-1.732,0.791-1.732,1.765c0,0.973,0.775,1.764,1.732,1.764h29.462c0.955,0,1.731-0.791,1.731-1.764     C60.267,37.558,59.488,36.767,58.534,36.767z M58.534,50.631H29.071c-0.957,0-1.732,0.792-1.732,1.766s0.775,1.765,1.732,1.765     h29.462c0.955,0,1.731-0.791,1.731-1.765C60.267,51.423,59.488,50.631,58.534,50.631z M58.534,64.491H29.071     c-0.957,0-1.732,0.791-1.732,1.765c0,0.973,0.775,1.764,1.732,1.764h29.462c0.955,0,1.731-0.791,1.731-1.764     C60.267,65.282,59.488,64.491,58.534,64.491z M74.56,2.802h-9.965c-0.525,0-1.018,0.128-1.463,0.341     C62.103,1.266,60.202,0,58.022,0H29.579c-2.175,0-4.077,1.267-5.105,3.144c-0.446-0.214-0.938-0.342-1.463-0.342h-9.965     c-1.914,0-3.465,1.583-3.465,3.529v77.746c0,1.952,1.551,3.528,3.465,3.528H74.56c1.914,0,3.465-1.576,3.465-3.528V6.331     C78.022,4.385,76.474,2.802,74.56,2.802z M29.579,3.529h28.443c1.355,0,2.457,1.256,2.457,2.802c0,1.545-1.102,2.802-2.457,2.802     H29.579c-1.353,0-2.454-1.257-2.454-2.802C27.125,4.785,28.227,3.529,29.579,3.529z M71.095,80.548H16.511V9.859h6.5     c0.525,0,1.018-0.128,1.463-0.341c1.029,1.877,2.93,3.144,5.105,3.144h28.443c2.18,0,4.08-1.267,5.108-3.143     c0.446,0.212,0.938,0.34,1.464,0.34h6.5V80.548z" fill="#006DF0"/>
		</g>
	</g>
</g>
<g>
</g>
<g>
</g>
<g>
</g>
<g>
</g>
<g>
</g>
<g>
</g>
<g>
</g>
<g>
</g>
<g>
</g>
<g>
</g>
<g>
</g>
<g>
</g>
<g>
</g>
<g>
</g>
<g>
</g>
</svg>
